<?xml version="1.0" encoding="iso-8859-1"?>
<!-- Generator: Adobe Illustrator 22.0.1, SVG Export Plug-In . SVG Version: 6.00 Build 0)  -->
<svg version="1.1" id="Layer_1" xmlns="http://www.w3.org/2000/svg" xmlns:xlink="http://www.w3.org/1999/xlink" x="0px" y="0px"
	 width="1400px" height="980px" viewBox="0 0 1400 980" enable-background="new 0 0 1400 980" xml:space="preserve">
<g>
	<path fill="#1F5D72" d="M1250.185,665.167c-54.466,0-54.466,26-108.932,26c-54.467,0-54.467-26-108.933-26
		c-54.466,0-54.466,26-108.932,26c-54.466,0-54.466-26-108.933-26c-54.465,0-54.465,26-108.929,26c-54.466,0-54.466-26-108.933-26
		s-54.466,26-108.933,26c-54.466,0-54.466-26-108.932-26s-54.466,26-108.933,26c-54.467,0-54.467-26-108.933-26
		c-54.466,0-54.466,26-108.931,26c-25.214,0-38.754-5.572-51.431-11.557v99.833C13.176,785.428,26.717,791,51.931,791
		c54.466,0,54.466-26,108.931-26c54.466,0,54.466,26,108.933,26c54.466,0,54.466-26,108.933-26s54.466,26,108.932,26
		c54.466,0,54.466-26,108.933-26s54.466,26,108.933,26c54.464,0,54.464-26,108.929-26c54.467,0,54.467,26,108.933,26
		c54.466,0,54.466-26,108.932-26c54.467,0,54.467,26,108.933,26c54.466,0,54.466-26,108.932-26c54.468,0,54.468,26,108.935,26
		c18.178,0,30.286-2.897,40.38-6.756v-99.833c-10.094,3.858-22.202,6.756-40.38,6.756
		C1304.652,691.167,1304.652,665.167,1250.185,665.167z"/>
	<path fill="#296F82" d="M1250.185,565.333c-54.466,0-54.466,26-108.932,26c-54.467,0-54.467-26-108.933-26
		c-54.466,0-54.466,26-108.932,26c-54.466,0-54.466-26-108.933-26c-54.465,0-54.465,26-108.929,26c-54.466,0-54.466-26-108.933-26
		s-54.466,26-108.933,26c-54.466,0-54.466-26-108.932-26s-54.466,26-108.933,26c-54.467,0-54.467-26-108.933-26
		c-54.466,0-54.466,26-108.931,26c-25.214,0-38.754-5.572-51.431-11.557v99.833c12.676,5.985,26.217,11.557,51.431,11.557
		c54.466,0,54.466-26,108.931-26c54.466,0,54.466,26,108.933,26c54.466,0,54.466-26,108.933-26s54.466,26,108.932,26
		c54.466,0,54.466-26,108.933-26s54.466,26,108.933,26c54.464,0,54.464-26,108.929-26c54.467,0,54.467,26,108.933,26
		c54.466,0,54.466-26,108.932-26c54.467,0,54.467,26,108.933,26c54.466,0,54.466-26,108.932-26c54.468,0,54.468,26,108.935,26
		c18.178,0,30.286-2.897,40.38-6.756v-99.833c-10.094,3.858-22.202,6.755-40.38,6.755
		C1304.652,591.333,1304.652,565.333,1250.185,565.333z"/>
	<path fill="#378099" d="M1250.185,465.5c-54.466,0-54.466,26-108.932,26c-54.467,0-54.467-26-108.933-26
		c-54.466,0-54.466,26-108.932,26c-54.466,0-54.466-26-108.933-26c-54.465,0-54.465,26-108.929,26c-54.466,0-54.466-26-108.933-26
		s-54.466,26-108.933,26c-54.466,0-54.466-26-108.932-26s-54.466,26-108.933,26c-54.467,0-54.467-26-108.933-26
		c-54.466,0-54.466,26-108.931,26c-25.214,0-38.754-5.572-51.431-11.557v99.833c12.676,5.985,26.217,11.557,51.431,11.557
		c54.466,0,54.466-26,108.931-26c54.466,0,54.466,26,108.933,26c54.466,0,54.466-26,108.933-26s54.466,26,108.932,26
		c54.466,0,54.466-26,108.933-26s54.466,26,108.933,26c54.464,0,54.464-26,108.929-26c54.467,0,54.467,26,108.933,26
		c54.466,0,54.466-26,108.932-26c54.467,0,54.467,26,108.933,26c54.466,0,54.466-26,108.932-26c54.468,0,54.468,26,108.935,26
		c18.178,0,30.286-2.897,40.38-6.755v-99.833c-10.094,3.859-22.202,6.756-40.38,6.756C1304.652,491.5,1304.652,465.5,1250.185,465.5
		z"/>
	<path opacity="0.5" fill="#1C5366" d="M51.931,791c54.466,0,54.466-26,108.931-26c54.466,0,54.466,26,108.933,26
		c54.466,0,54.466-26,108.933-26s54.466,26,108.932,26c54.466,0,54.466-26,108.933-26s54.466,26,108.933,26
		c54.464,0,54.464-26,108.929-26c54.467,0,54.467,26,108.933,26c54.466,0,54.466-26,108.932-26c54.467,0,54.467,26,108.933,26
		c54.466,0,54.466-26,108.932-26c54.468,0,54.468,26,108.935,26c17.882,0,29.885-2.805,39.88-6.57v-21.12
		c-10.733,4.553-23.367,8.19-43.551,8.19c-53.966,0-53.966-26-107.931-26c-53.964,0-53.964,26-107.928,26
		c-53.965,0-53.965-26-107.93-26c-53.964,0-53.964,26-107.929,26c-53.965,0-53.965-26-107.93-26c-53.963,0-53.963,26-107.925,26
		c-53.965,0-53.965-26-107.929-26c-53.964,0-53.964,26-107.927,26c-53.964,0-53.964-26-107.929-26c-53.965,0-53.965,26-107.929,26
		c-53.965,0-53.965-26-107.93-26c-53.964,0-53.964,26-107.927,26c-31.175,0-44.34-8.677-60.304-16.006V879h0.5v-99.557
		C13.176,785.428,26.717,791,51.931,791z"/>
	<path fill="#4E9CB7" d="M1250.185,365.667c-54.466,0-54.466,26-108.932,26c-54.467,0-54.467-26-108.933-26
		c-54.466,0-54.466,26-108.932,26c-54.466,0-54.466-26-108.933-26c-54.465,0-54.465,26-108.929,26c-54.466,0-54.466-26-108.933-26
		s-54.466,26-108.933,26c-54.466,0-54.466-26-108.932-26s-54.466,26-108.933,26c-54.467,0-54.467-26-108.933-26
		c-54.466,0-54.466,26-108.931,26c-25.214,0-38.754-5.572-51.431-11.557v99.833c12.676,5.985,26.217,11.557,51.431,11.557
		c54.466,0,54.466-26,108.931-26c54.466,0,54.466,26,108.933,26c54.466,0,54.466-26,108.933-26s54.466,26,108.932,26
		c54.466,0,54.466-26,108.933-26s54.466,26,108.933,26c54.464,0,54.464-26,108.929-26c54.467,0,54.467,26,108.933,26
		c54.466,0,54.466-26,108.932-26c54.467,0,54.467,26,108.933,26c54.466,0,54.466-26,108.932-26c54.468,0,54.468,26,108.935,26
		c18.178,0,30.286-2.897,40.38-6.756v-99.833c-10.094,3.858-22.202,6.755-40.38,6.755
		C1304.652,391.667,1304.652,365.667,1250.185,365.667z"/>
	<path opacity="0.5" fill="#1F5D72" d="M51.931,692c54.466,0,54.466-26,108.931-26c54.466,0,54.466,26,108.933,26
		c54.466,0,54.466-26,108.933-26s54.466,26,108.932,26c54.466,0,54.466-26,108.933-26s54.466,26,108.933,26
		c54.464,0,54.464-26,108.929-26c54.467,0,54.467,26,108.933,26c54.466,0,54.466-26,108.932-26c54.467,0,54.467,26,108.933,26
		c54.466,0,54.466-26,108.932-26c54.468,0,54.468,26,108.935,26c17.882,0,29.885-2.805,39.88-6.57v-21.12
		c-10.733,4.553-23.367,8.19-43.551,8.19c-53.966,0-53.966-26-107.931-26c-53.964,0-53.964,26-107.928,26
		c-53.965,0-53.965-26-107.93-26c-53.964,0-53.964,26-107.929,26c-53.965,0-53.965-26-107.93-26c-53.963,0-53.963,26-107.925,26
		c-53.965,0-53.965-26-107.929-26c-53.964,0-53.964,26-107.927,26c-53.964,0-53.964-26-107.929-26c-53.965,0-53.965,26-107.929,26
		c-53.965,0-53.965-26-107.93-26c-53.964,0-53.964,26-107.927,26c-31.175,0-44.34-8.677-60.304-16.006V780h0.5v-99.557
		C13.176,686.428,26.717,692,51.931,692z"/>
	<path fill="#56AECC" d="M1359.12,291.833c-54.468,0-54.468-26-108.935-26c-54.466,0-54.466,26-108.932,26
		c-54.467,0-54.467-26-108.933-26c-54.466,0-54.466,26-108.932,26c-54.466,0-54.466-26-108.933-26c-54.465,0-54.465,26-108.929,26
		c-54.466,0-54.466-26-108.933-26s-54.466,26-108.933,26c-54.466,0-54.466-26-108.932-26s-54.466,26-108.933,26
		c-54.467,0-54.467-26-108.933-26c-54.466,0-54.466,26-108.931,26c-25.214,0-38.754-5.572-51.431-11.557v99.833
		c12.676,5.985,26.217,11.557,51.431,11.557c54.466,0,54.466-26,108.931-26c54.466,0,54.466,26,108.933,26
		c54.466,0,54.466-26,108.933-26s54.466,26,108.932,26c54.466,0,54.466-26,108.933-26s54.466,26,108.933,26
		c54.464,0,54.464-26,108.929-26c54.467,0,54.467,26,108.933,26c54.466,0,54.466-26,108.932-26c54.467,0,54.467,26,108.933,26
		c54.466,0,54.466-26,108.932-26c54.468,0,54.468,26,108.935,26c18.178,0,30.286-2.897,40.38-6.755v-99.833
		C1389.406,288.936,1377.298,291.833,1359.12,291.833z"/>
	<path opacity="0.5" fill="#296F82" d="M51.931,592c54.466,0,54.466-26,108.931-26c54.466,0,54.466,26,108.933,26
		c54.466,0,54.466-26,108.933-26s54.466,26,108.932,26c54.466,0,54.466-26,108.933-26s54.466,26,108.933,26
		c54.464,0,54.464-26,108.929-26c54.467,0,54.467,26,108.933,26c54.466,0,54.466-26,108.932-26c54.467,0,54.467,26,108.933,26
		c54.466,0,54.466-26,108.932-26c54.468,0,54.468,26,108.935,26c17.882,0,29.885-2.805,39.88-6.57v-21.12
		c-10.733,4.553-23.367,8.19-43.551,8.19c-53.966,0-53.966-26-107.931-26c-53.964,0-53.964,26-107.928,26
		c-53.965,0-53.965-26-107.93-26c-53.964,0-53.964,26-107.929,26c-53.965,0-53.965-26-107.93-26c-53.963,0-53.963,26-107.925,26
		c-53.965,0-53.965-26-107.929-26c-53.964,0-53.964,26-107.927,26c-53.964,0-53.964-26-107.929-26c-53.965,0-53.965,26-107.929,26
		c-53.965,0-53.965-26-107.93-26c-53.964,0-53.964,26-107.927,26c-31.175,0-44.34-8.677-60.304-16.006V680h0.5v-99.557
		C13.176,586.428,26.717,592,51.931,592z"/>
	<path opacity="0.5" fill="#378099" d="M51.931,492c54.466,0,54.466-26,108.931-26c54.466,0,54.466,26,108.933,26
		c54.466,0,54.466-26,108.933-26s54.466,26,108.932,26c54.466,0,54.466-26,108.933-26s54.466,26,108.933,26
		c54.464,0,54.464-26,108.929-26c54.467,0,54.467,26,108.933,26c54.466,0,54.466-26,108.932-26c54.467,0,54.467,26,108.933,26
		c54.466,0,54.466-26,108.932-26c54.468,0,54.468,26,108.935,26c17.882,0,29.885-2.806,39.88-6.57v-21.12
		c-10.733,4.553-23.367,8.19-43.551,8.19c-53.966,0-53.966-26-107.931-26c-53.964,0-53.964,26-107.928,26
		c-53.965,0-53.965-26-107.93-26c-53.964,0-53.964,26-107.929,26c-53.965,0-53.965-26-107.93-26c-53.963,0-53.963,26-107.925,26
		c-53.965,0-53.965-26-107.929-26c-53.964,0-53.964,26-107.927,26c-53.964,0-53.964-26-107.929-26c-53.965,0-53.965,26-107.929,26
		c-53.965,0-53.965-26-107.93-26c-53.964,0-53.964,26-107.927,26c-31.175,0-44.34-8.677-60.304-16.006V580h0.5v-99.557
		C13.176,486.428,26.717,492,51.931,492z"/>
	<path fill="#74CBE2" d="M160.862,265.833c54.466,0,54.466,26,108.933,26c54.466,0,54.466-26,108.933-26s54.466,26,108.932,26
		c54.466,0,54.466-26,108.933-26s54.466,26,108.933,26c54.464,0,54.464-26,108.929-26c54.467,0,54.467,26,108.933,26
		c54.466,0,54.466-26,108.932-26c54.467,0,54.467,26,108.933,26c54.466,0,54.466-26,108.932-26c54.468,0,54.468,26,108.935,26
		c18.178,0,30.286-2.897,40.38-6.756v-99.833c-10.094,3.859-22.202,6.756-40.38,6.756c-54.468,0-54.468-26-108.935-26
		c-54.466,0-54.466,26-108.932,26c-54.467,0-54.467-26-108.933-26c-54.466,0-54.466,26-108.932,26c-54.466,0-54.466-26-108.933-26
		c-54.465,0-54.465,26-108.929,26c-54.466,0-54.466-26-108.933-26s-54.466,26-108.933,26c-54.466,0-54.466-26-108.932-26
		s-54.466,26-108.933,26c-54.467,0-54.467-26-108.933-26c-54.466,0-54.466,26-108.931,26c-25.214,0-38.754-5.572-51.431-11.557
		v99.833c12.676,5.985,26.217,11.557,51.431,11.557C106.396,291.833,106.396,265.833,160.862,265.833z"/>
	<path opacity="0.5" fill="#4E9CB7" d="M51.931,392c54.466,0,54.466-26,108.931-26c54.466,0,54.466,26,108.933,26
		c54.466,0,54.466-26,108.933-26s54.466,26,108.932,26c54.466,0,54.466-26,108.933-26s54.466,26,108.933,26
		c54.464,0,54.464-26,108.929-26c54.467,0,54.467,26,108.933,26c54.466,0,54.466-26,108.932-26c54.467,0,54.467,26,108.933,26
		c54.466,0,54.466-26,108.932-26c54.468,0,54.468,26,108.935,26c17.882,0,29.885-2.806,39.88-6.57v-21.12
		c-10.733,4.553-23.367,8.19-43.551,8.19c-53.966,0-53.966-26-107.931-26c-53.964,0-53.964,26-107.928,26
		c-53.965,0-53.965-26-107.93-26c-53.964,0-53.964,26-107.929,26c-53.965,0-53.965-26-107.93-26c-53.963,0-53.963,26-107.925,26
		c-53.965,0-53.965-26-107.929-26c-53.964,0-53.964,26-107.927,26c-53.964,0-53.964-26-107.929-26c-53.965,0-53.965,26-107.929,26
		c-53.965,0-53.965-26-107.93-26c-53.964,0-53.964,26-107.927,26c-31.175,0-44.34-8.677-60.304-16.006V480h0.5v-99.557
		C13.176,386.428,26.717,392,51.931,392z"/>
	<path opacity="0.5" fill="#56AECC" d="M51.931,292c54.466,0,54.466-26,108.931-26c54.466,0,54.466,26,108.933,26
		c54.466,0,54.466-26,108.933-26s54.466,26,108.932,26c54.466,0,54.466-26,108.933-26s54.466,26,108.933,26
		c54.464,0,54.464-26,108.929-26c54.467,0,54.467,26,108.933,26c54.466,0,54.466-26,108.932-26c54.467,0,54.467,26,108.933,26
		c54.466,0,54.466-26,108.932-26c54.468,0,54.468,26,108.935,26c17.882,0,29.885-2.806,39.88-6.57v-21.12
		c-10.733,4.553-23.367,8.19-43.551,8.19c-53.966,0-53.966-26-107.931-26c-53.964,0-53.964,26-107.928,26
		c-53.965,0-53.965-26-107.93-26c-53.964,0-53.964,26-107.929,26c-53.965,0-53.965-26-107.93-26c-53.963,0-53.963,26-107.925,26
		c-53.965,0-53.965-26-107.929-26c-53.964,0-53.964,26-107.927,26c-53.964,0-53.964-26-107.929-26c-53.965,0-53.965,26-107.929,26
		c-53.965,0-53.965-26-107.93-26c-53.964,0-53.964,26-107.927,26c-31.175,0-44.34-8.677-60.304-16.006V380h0.5v-99.557
		C13.176,286.428,26.717,292,51.931,292z"/>
	<path fill="#1C5366" d="M1399,784.43c-9.995,3.765-21.999,6.57-39.88,6.57c-54.468,0-54.468-26-108.935-26
		c-54.466,0-54.466,26-108.932,26c-54.467,0-54.467-26-108.933-26c-54.466,0-54.466,26-108.932,26c-54.466,0-54.466-26-108.933-26
		c-54.465,0-54.465,26-108.929,26c-54.466,0-54.466-26-108.933-26s-54.466,26-108.933,26c-54.466,0-54.466-26-108.932-26
		s-54.466,26-108.933,26c-54.467,0-54.467-26-108.933-26c-54.466,0-54.466,26-108.931,26c-25.214,0-38.754-5.572-51.431-11.557V879
		v0.443C13.176,885.428,26.717,891,51.931,891c25.835,0,39.415-5.85,52.366-12c14.353-6.816,27.934-14,56.565-14
		c28.631,0,42.213,7.184,56.566,14c12.952,6.15,26.532,12,52.367,12c25.835,0,39.415-5.85,52.367-12
		c14.353-6.816,27.935-14,56.566-14s42.212,7.184,56.566,14c12.952,6.15,26.532,12,52.367,12c25.835,0,39.415-5.85,52.367-12
		c14.353-6.816,27.935-14,56.566-14c28.631,0,42.212,7.184,56.566,14c12.952,6.15,26.532,12,52.367,12
		c25.834,0,39.414-5.85,52.365-12c14.353-6.816,27.934-14,56.564-14c28.631,0,42.213,7.184,56.566,14
		c12.952,6.15,26.532,12,52.367,12c25.835,0,39.415-5.85,52.367-12c14.353-6.816,27.934-14,56.565-14
		c28.631,0,42.213,7.184,56.566,14c12.952,6.15,26.532,12,52.367,12c25.835,0,39.415-5.85,52.367-12
		c14.353-6.816,27.934-14,56.565-14c28.632,0,42.213,7.184,56.567,14c12.952,6.15,26.532,12,52.368,12
		c18.178,0,30.286-2.897,40.38-6.756v-100C1399.335,784.307,1399.166,784.368,1399,784.43z"/>
	<g>
		<path opacity="0.5" fill="#0F3A4C" d="M0.5,879.443C13.176,885.428,26.717,891,51.931,891c54.466,0,54.466-26,108.931-26
			c54.466,0,54.466,26,108.933,26c54.466,0,54.466-26,108.933-26s54.466,26,108.932,26c54.466,0,54.466-26,108.933-26
			s54.466,26,108.933,26c54.464,0,54.464-26,108.929-26c54.467,0,54.467,26,108.933,26c54.466,0,54.466-26,108.932-26
			c54.467,0,54.467,26,108.933,26c54.466,0,54.466-26,108.932-26c54.468,0,54.468,26,108.935,26c17.882,0,29.885-2.805,39.88-6.57
			v-20.12c-10.733,4.553-23.367,8.19-43.551,8.19c-53.966,0-53.966-26-107.931-26c-53.964,0-53.964,26-107.928,26
			c-53.965,0-53.965-26-107.93-26c-53.964,0-53.964,26-107.929,26c-53.965,0-53.965-26-107.93-26c-53.963,0-53.963,26-107.925,26
			c-53.965,0-53.965-26-107.929-26c-53.964,0-53.964,26-107.927,26c-53.964,0-53.964-26-107.929-26c-53.965,0-53.965,26-107.929,26
			c-53.965,0-53.965-26-107.93-26c-53.964,0-53.964,26-107.927,26c-31.175,0-44.34-8.677-60.304-16.006V980h1399v-0.5H0.5V879.443z"
			/>
		<path fill="#0F3A4C" d="M1399.5,884.244c-0.165,0.063-0.334,0.123-0.5,0.185c-9.995,3.765-21.999,6.57-39.88,6.57
			c-54.468,0-54.468-26-108.935-26c-54.466,0-54.466,26-108.932,26c-54.467,0-54.467-26-108.933-26c-54.466,0-54.466,26-108.932,26
			c-54.466,0-54.466-26-108.933-26c-54.465,0-54.465,26-108.929,26c-54.466,0-54.466-26-108.933-26s-54.466,26-108.933,26
			c-54.466,0-54.466-26-108.932-26s-54.466,26-108.933,26c-54.467,0-54.467-26-108.933-26c-54.466,0-54.466,26-108.931,26
			c-25.214,0-38.754-5.572-51.431-11.557V979.5H1399h0.5V884.244z"/>
	</g>
	<path fill="#8FD7EF" d="M160.862,165.657c54.466,0,54.466,26.343,108.933,26.343c54.466,0,54.466-26.343,108.933-26.343
		S433.194,192,487.66,192c54.466,0,54.466-26.343,108.933-26.343S651.059,192,705.525,192c54.464,0,54.464-26.343,108.929-26.343
		c54.467,0,54.467,26.343,108.933,26.343c54.466,0,54.466-26.343,108.932-26.343c54.467,0,54.467,26.343,108.933,26.343
		c54.466,0,54.466-26.343,108.932-26.343c54.468,0,54.468,26.343,108.935,26.343c18.178,0,30.286-2.935,40.38-6.845V0H0.5v180.29
		C13.176,186.354,26.717,192,51.931,192C106.396,192,106.396,165.657,160.862,165.657z"/>
</g>
<g>
</g>
<g>
</g>
<g>
</g>
<g>
</g>
<g>
</g>
<g>
</g>
<g>
</g>
<g>
</g>
<g>
</g>
<g>
</g>
<g>
</g>
</svg>
